<?xml version="1.0" encoding="UTF-8" standalone="no"?>
<!-- Created with Inkscape (http://www.inkscape.org/) -->

<svg
   width="210mm"
   height="210mm"
   viewBox="0 0 210 210"
   version="1.1"
   id="svg5"
   inkscape:version="1.1.1 (3bf5ae0d25, 2021-09-20)"
   sodipodi:docname="icon.svg"
   xmlns:inkscape="http://www.inkscape.org/namespaces/inkscape"
   xmlns:sodipodi="http://sodipodi.sourceforge.net/DTD/sodipodi-0.dtd"
   xmlns="http://www.w3.org/2000/svg"
   xmlns:svg="http://www.w3.org/2000/svg">
  <sodipodi:namedview
     id="namedview7"
     pagecolor="#505050"
     bordercolor="#ffffff"
     borderopacity="1"
     inkscape:pageshadow="0"
     inkscape:pageopacity="0"
     inkscape:pagecheckerboard="1"
     inkscape:document-units="mm"
     showgrid="false"
     height="210mm"
     inkscape:zoom="0.83402491"
     inkscape:cx="457.42039"
     inkscape:cy="376.48756"
     inkscape:window-width="1440"
     inkscape:window-height="890"
     inkscape:window-x="-6"
     inkscape:window-y="-6"
     inkscape:window-maximized="1"
     inkscape:current-layer="layer1" />
  <defs
     id="defs2" />
  <g
     inkscape:label="Laag 1"
     inkscape:groupmode="layer"
     id="layer1">
    <g
       id="g21"
       transform="translate(-0.63447347,-1.2689467)"
       style="fill:#000000">
      <path
         style="fill:#000000;fill-opacity:1;stroke-width:0.108619"
         d="m 77.908643,124.57768 c -0.04576,-0.0739 4.475872,-0.0727 9.92193,0.003 1.16494,0.0161 -0.579585,0.0405 -3.876723,0.0541 -3.297138,0.0136 -6.017481,-0.0119 -6.045207,-0.0567 z m 103.252917,7e-5 c 1.6578,-0.0169 4.37056,-0.0169 6.02836,0 1.6578,0.0169 0.30142,0.0307 -3.01418,0.0307 -3.3156,0 -4.67198,-0.0138 -3.01418,-0.0307 z m -30.25043,-0.10388 c 0.13442,-0.0259 0.35437,-0.0259 0.48879,0 0.13441,0.0259 0.0244,0.0471 -0.2444,0.0471 -0.26883,0 -0.37881,-0.0212 -0.24439,-0.0471 z m 40.92079,-15.40157 c 0,-8.54289 0.0129,-12.053761 0.0286,-7.80192 0.0157,4.25183 0.0157,11.24148 0,15.53253 -0.0157,4.29106 -0.0286,0.81228 -0.0286,-7.73061 z M 29.814105,123.16563 c -0.135108,-0.17227 -0.131267,-0.17612 0.04101,-0.041 0.180932,0.1419 0.238471,0.2311 0.149073,0.2311 -0.02256,0 -0.108092,-0.0855 -0.190083,-0.19009 z M 143.99523,115.0373 c 0.005,-0.12653 0.031,-0.15227 0.0656,-0.0656 0.0314,0.0784 0.0275,0.17209 -0.009,0.20818 -0.0361,0.0361 -0.0618,-0.0281 -0.0571,-0.14256 z m 0,-0.97757 c 0.005,-0.12654 0.031,-0.15227 0.0656,-0.0656 0.0314,0.0784 0.0275,0.1721 -0.009,0.20819 -0.0361,0.0361 -0.0618,-0.0281 -0.0571,-0.14256 z m -125.477514,-1.1043 c -0.135108,-0.17227 -0.131267,-0.17611 0.04101,-0.041 0.104546,0.082 0.190083,0.16753 0.190083,0.19009 0,0.0894 -0.0892,0.0319 -0.231093,-0.14908 z m 87.678064,-11.27828 c 0.005,-0.12654 0.031,-0.15228 0.0656,-0.0656 0.0314,0.0784 0.0275,0.1721 -0.009,0.20819 -0.0361,0.0361 -0.0618,-0.0281 -0.0571,-0.14256 z m 90.26249,-3.475815 c 0.005,-0.126535 0.0309,-0.152273 0.0656,-0.06562 0.0314,0.07841 0.0275,0.172093 -0.009,0.208187 -0.0361,0.03609 -0.0618,-0.02806 -0.0571,-0.142563 z M 28.415911,95.290969 c 0,-0.02255 0.08554,-0.108092 0.190084,-0.190083 0.172276,-0.135108 0.176118,-0.131266 0.04101,0.04101 -0.141897,0.180933 -0.231094,0.238471 -0.231094,0.149073 z m 172.161309,0 c 0,-0.02255 0.0855,-0.108092 0.19009,-0.190083 0.17228,-0.135108 0.17611,-0.131266 0.041,0.04101 -0.1419,0.180933 -0.2311,0.238471 -0.2311,0.149073 z m -4.32761,-0.936561 c 0,-0.149352 0.0247,-0.21045 0.0548,-0.135774 0.0301,0.07467 0.0301,0.196872 0,0.271547 -0.0301,0.07468 -0.0548,0.01358 -0.0548,-0.135773 z"
         id="path35" />
      <path
         style="fill:#000000;fill-opacity:1;stroke-width:0.108619"
         d="m 91.685087,109.0723 c -4e-6,-8.54289 0.01287,-12.053761 0.0286,-7.80192 0.01574,4.25183 0.01574,11.24148 6e-6,15.53253 -0.01573,4.29106 -0.02861,0.81228 -0.02861,-7.73061 z m 58.304273,15.40028 c 0.16511,-0.025 0.4095,-0.0243 0.54309,0.001 0.1336,0.0258 -0.002,0.0462 -0.30019,0.0454 -0.2987,-8.6e-4 -0.40801,-0.0219 -0.2429,-0.0469 z M 20.581479,114.80196 c -0.135108,-0.17228 -0.131266,-0.17612 0.04101,-0.041 0.104546,0.082 0.190084,0.16753 0.190084,0.19008 0,0.0894 -0.0892,0.0319 -0.231094,-0.14907 z m 112.994901,-0.13577 c 0,-0.14936 0.0247,-0.21045 0.0548,-0.13578 0.0301,0.0747 0.0301,0.19687 0,0.27155 -0.0301,0.0747 -0.0548,0.0136 -0.0548,-0.13577 z m 10.43548,-0.10862 c 0,-0.2091 0.0223,-0.29463 0.0497,-0.19009 0.0273,0.10455 0.0273,0.27562 0,0.38017 -0.0273,0.10455 -0.0497,0.019 -0.0497,-0.19008 z M 24.940099,98.440924 c 0,-0.02255 0.08554,-0.108092 0.190084,-0.190083 0.172276,-0.135108 0.176118,-0.131266 0.04101,0.04101 -0.141897,0.180932 -0.231094,0.238471 -0.231094,0.149073 z M 197.42727,98.115067 c 0,-0.02255 0.0855,-0.108092 0.19008,-0.190084 0.17228,-0.135108 0.17612,-0.131266 0.041,0.04101 -0.1419,0.180932 -0.2311,0.238471 -0.2311,0.149073 z m -1.07762,-1.977495 c 0.005,-0.126536 0.031,-0.152273 0.0656,-0.06562 0.0314,0.07841 0.0275,0.172094 -0.009,0.208187 -0.0361,0.03609 -0.0618,-0.02806 -0.0571,-0.142563 z m -1.19481,-0.543096 c 0.005,-0.126536 0.0309,-0.152273 0.0656,-0.06562 0.0314,0.07841 0.0275,0.172093 -0.009,0.208187 -0.0361,0.03609 -0.0618,-0.02806 -0.0571,-0.142563 z M 29.284864,94.530636 c 0,-0.02255 0.08554,-0.108093 0.190084,-0.190084 0.172276,-0.135108 0.176118,-0.131266 0.04101,0.04101 -0.141897,0.180933 -0.231094,0.238471 -0.231094,0.149074 z M 196.24103,93.965189 c 0.005,-0.126536 0.031,-0.152273 0.0656,-0.06562 0.0314,0.07841 0.0275,0.172093 -0.009,0.208187 -0.0361,0.03609 -0.0618,-0.02806 -0.0571,-0.142563 z m 5.74824,0.02235 c 0,-0.02255 0.0855,-0.108092 0.19009,-0.190084 0.17228,-0.135108 0.17611,-0.131266 0.041,0.04101 -0.1419,0.180932 -0.2311,0.238471 -0.2311,0.149073 z m -5.85686,-1.977495 c 0.005,-0.126535 0.031,-0.152274 0.0656,-0.06562 0.0314,0.07841 0.0275,0.172093 -0.009,0.208186 -0.0361,0.03609 -0.0618,-0.02806 -0.0571,-0.142562 z"
         id="path33" />
      <path
         style="fill:#000000;fill-opacity:1;stroke-width:0.108619"
         d="m 149.0646,124.47387 c 0.13442,-0.0259 0.35437,-0.0259 0.48879,0 0.13442,0.0259 0.0244,0.0471 -0.24439,0.0471 -0.26883,0 -0.37881,-0.0212 -0.2444,-0.0471 z m 53.4414,-14.58693 c -0.0154,-8.06497 0.009,-14.663586 0.0535,-14.663584 0.0448,2e-6 0.0815,6.598614 0.0815,14.663584 0,8.06497 -0.0241,14.66359 -0.0535,14.66359 -0.0294,0 -0.0661,-6.59862 -0.0815,-14.66359 z m -60.96327,12.59982 c 0.10813,-0.11948 0.22104,-0.21724 0.25091,-0.21724 0.0299,0 -0.0342,0.0978 -0.14229,0.21724 -0.10813,0.11948 -0.22104,0.21724 -0.25091,0.21724 -0.0299,0 0.0342,-0.0978 0.14229,-0.21724 z M 17.119522,105.50117 c 0,-0.0226 0.08554,-0.10809 0.190084,-0.19009 0.172276,-0.1351 0.176118,-0.13126 0.04101,0.041 -0.141897,0.18094 -0.231094,0.23848 -0.231094,0.14908 z M 195.26346,98.201335 c 0.005,-0.126535 0.0309,-0.152273 0.0656,-0.06562 0.0314,0.07841 0.0275,0.172093 -0.009,0.208187 -0.0361,0.03609 -0.0618,-0.02806 -0.0571,-0.142563 z M 27.003863,96.594399 c 0,-0.02255 0.08554,-0.108092 0.190083,-0.190083 0.172277,-0.135108 0.176119,-0.131267 0.04101,0.04101 -0.141897,0.180932 -0.231094,0.238471 -0.231093,0.149073 z M 199.92551,95.834065 c 0,-0.02255 0.0855,-0.108092 0.19008,-0.190083 0.17228,-0.135108 0.17612,-0.131267 0.041,0.04101 -0.1419,0.180932 -0.2311,0.238471 -0.2311,0.149073 z m -3.68448,-2.194733 c 0.005,-0.126536 0.031,-0.152273 0.0656,-0.06562 0.0314,0.07841 0.0275,0.172092 -0.009,0.208187 -0.0361,0.03609 -0.0618,-0.02806 -0.0571,-0.142563 z m -0.10862,-1.955145 c 0.005,-0.126535 0.031,-0.152273 0.0656,-0.06562 0.0314,0.07841 0.0275,0.172094 -0.009,0.208187 -0.0361,0.03609 -0.0618,-0.02806 -0.0571,-0.142563 z"
         id="path31" />
      <path
         style="fill:#000000;fill-opacity:1;stroke-width:0.108619"
         d="m 148.14283,124.47258 c 0.16511,-0.025 0.40951,-0.0243 0.5431,0.001 0.1336,0.0258 -0.002,0.0462 -0.30019,0.0454 -0.29871,-8.6e-4 -0.40801,-0.0219 -0.24291,-0.0469 z m -11.77987,-0.10487 c 0.0784,-0.0314 0.17209,-0.0275 0.20819,0.009 0.0361,0.0361 -0.0281,0.0618 -0.14257,0.0571 -0.12654,-0.005 -0.15227,-0.031 -0.0656,-0.0656 z m -30.16718,-19.64923 c 0.005,-0.12653 0.031,-0.15227 0.0656,-0.0656 0.0314,0.0784 0.0275,0.17209 -0.009,0.20819 -0.0361,0.0361 -0.0618,-0.0281 -0.0571,-0.14257 z m -85.926303,-2.04141 c 0,-0.0225 0.08554,-0.10809 0.190084,-0.19008 0.172276,-0.13511 0.176118,-0.13127 0.04101,0.041 -0.141897,0.18093 -0.231094,0.23847 -0.231094,0.14907 z m 85.926303,-0.23959 c 0.005,-0.12653 0.031,-0.15227 0.0656,-0.0656 0.0314,0.0784 0.0275,0.17209 -0.009,0.20818 -0.0361,0.0361 -0.0618,-0.0281 -0.0571,-0.14256 z m 18.97262,-0.88704 c 3.24092,-0.016 8.54425,-0.016 11.78517,0 3.24093,0.016 0.58926,0.0291 -5.89259,0.0291 -6.48184,0 -9.13351,-0.0131 -5.89258,-0.0291 z m 71.49854,-2.783658 c 0,-0.02256 0.0855,-0.108093 0.19008,-0.190084 0.17228,-0.135108 0.17611,-0.131266 0.041,0.04101 -0.1419,0.180933 -0.23109,0.238472 -0.23109,0.149074 z m 2.38962,-2.172383 c 0,-0.02255 0.0855,-0.108092 0.19008,-0.190083 0.17228,-0.135108 0.17612,-0.131267 0.041,0.04101 -0.1419,0.180932 -0.23109,0.238471 -0.23109,0.149073 z m -85.50362,-2.857286 c 0.0784,-0.03138 0.1721,-0.02752 0.20819,0.0086 0.0361,0.03609 -0.0281,0.06176 -0.14256,0.05705 -0.12654,-0.0052 -0.15228,-0.03095 -0.0656,-0.06562 z m 82.68809,-0.423638 c 0.005,-0.126536 0.031,-0.152274 0.0656,-0.06562 0.0314,0.07841 0.0275,0.172093 -0.009,0.208187 -0.0361,0.03609 -0.0618,-0.02806 -0.0571,-0.142562 z"
         id="path29" />
      <path
         style="fill:#000000;fill-opacity:1;stroke-width:0.108619"
         d="m 147.16526,124.47258 c 0.16511,-0.025 0.4095,-0.0243 0.54309,0.001 0.13361,0.0258 -0.002,0.0462 -0.30019,0.0454 -0.2987,-8.6e-4 -0.408,-0.0219 -0.2429,-0.0469 z M 4.8983953,109.0723 c 2.8e-6,-8.48315 0.012882,-11.937493 0.028621,-7.67631 0.015739,4.26119 0.015737,11.20195 -5e-6,15.42392 -0.015742,4.22197 -0.028619,0.73554 -0.028616,-7.74761 z M 118.81418,124.36046 c 3.21105,-0.016 8.4655,-0.016 11.67655,0 3.21106,0.016 0.58383,0.0291 -5.83827,0.0291 -6.42211,0 -9.04933,-0.0131 -5.83828,-0.0291 z m -5.59389,-7.82058 c 3.30067,-0.016 8.70175,-0.016 12.00242,0 3.30066,0.016 0.60012,0.029 -6.00121,0.029 -6.60133,0 -9.30187,-0.0131 -6.00121,-0.029 z m 3.64652,-3.80163 c 1.78155,-0.0168 4.66539,-0.0167 6.40853,2e-5 1.74313,0.0168 0.28549,0.0305 -3.2392,0.0305 -3.52469,-1e-5 -4.95089,-0.0137 -3.16933,-0.0305 z m 10.69892,-7.3861 c 1.69192,-0.0168 4.42912,-0.0168 6.08267,3e-5 1.65356,0.0169 0.26927,0.0306 -3.0762,0.0306 -3.34547,-2e-5 -4.69838,-0.0138 -3.00647,-0.0307 z m -21.36138,-1.00478 c 0,-0.14935 0.0247,-0.21045 0.0548,-0.13578 0.0301,0.0747 0.0301,0.19688 0,0.27155 -0.0301,0.0747 -0.0548,0.0136 -0.0548,-0.13577 z m 10.31024,-0.93232 c 0.005,-0.12653 0.031,-0.15227 0.0656,-0.0656 0.0314,0.0784 0.0275,0.17209 -0.009,0.20819 -0.0361,0.0361 -0.0618,-0.0281 -0.0571,-0.14257 z m -10.31024,-0.58835 c 0,-0.14935 0.0247,-0.21045 0.0548,-0.13577 0.0301,0.0747 0.0301,0.19687 0,0.27154 -0.0301,0.0747 -0.0548,0.0136 -0.0548,-0.13577 z m -85.06592,-0.90996 c 0,-0.0226 0.08554,-0.1081 0.190084,-0.19009 0.172276,-0.13511 0.176118,-0.13126 0.04101,0.041 -0.141897,0.18094 -0.231094,0.23847 -0.231094,0.14908 z m 97.83868,-0.35679 c 0.0747,-0.0301 0.19687,-0.0301 0.27154,0 0.0747,0.0301 0.0136,0.0548 -0.13577,0.0548 -0.14935,0 -0.21045,-0.0246 -0.13577,-0.0548 z m 77.36397,-0.7294 c 0,-0.0226 0.0855,-0.1081 0.19008,-0.19009 0.17228,-0.13511 0.17612,-0.13126 0.041,0.041 -0.1419,0.18093 -0.2311,0.23847 -0.2311,0.14908 z m 2.281,-2.063768 c 0,-0.02256 0.0855,-0.108093 0.19008,-0.190084 0.17228,-0.135108 0.17612,-0.131266 0.041,0.04101 -0.1419,0.180933 -0.2311,0.238472 -0.2311,0.149074 z m -1.62929,-0.325858 c 0,-0.02255 0.0855,-0.108092 0.19009,-0.190083 0.17228,-0.135108 0.17611,-0.131266 0.041,0.04101 -0.1419,0.180932 -0.2311,0.238471 -0.2311,0.149073 z M 39.7123,97.897829 c 0,-0.02255 0.08554,-0.108093 0.190084,-0.190084 0.172276,-0.135108 0.176118,-0.131266 0.04101,0.04101 -0.141897,0.180933 -0.231094,0.238472 -0.231094,0.149074 z m 158.52961,-0.610705 c 0.10813,-0.119481 0.22104,-0.217238 0.25091,-0.217238 0.0299,0 -0.0342,0.09776 -0.14229,0.217238 -0.10813,0.119481 -0.22104,0.217238 -0.25091,0.217238 -0.0299,0 0.0342,-0.09776 0.14229,-0.217238 z m -3.07447,-0.923263 c 0.002,-0.179221 0.0266,-0.23939 0.0541,-0.133706 0.0275,0.105683 0.0257,0.252319 -0.004,0.325857 -0.0298,0.07354 -0.0523,-0.01293 -0.0501,-0.192151 z m 1.2047,-1.303429 c 0.001,-0.298703 0.0219,-0.408007 0.0469,-0.2429 0.025,0.165108 0.0243,0.409501 -0.002,0.543096 -0.0258,0.133595 -0.0462,-0.0015 -0.0454,-0.300196 z m 4.15078,0.162929 c 0.10813,-0.119481 0.22103,-0.217239 0.25091,-0.217239 0.0299,0 -0.0342,0.09776 -0.1423,0.217239 -0.10813,0.119481 -0.22104,0.217238 -0.25091,0.217238 -0.0299,0 0.0342,-0.09776 0.1423,-0.217238 z m -86.65091,-1.483985 c 0.0747,-0.03013 0.19687,-0.03013 0.27155,0 0.0747,0.03013 0.0136,0.05479 -0.13578,0.05479 -0.14935,0 -0.21045,-0.02465 -0.13577,-0.05479 z m 23.14266,-0.0023 c 0.0784,-0.03138 0.1721,-0.02752 0.20819,0.0086 0.0361,0.03609 -0.0281,0.06177 -0.14256,0.05705 -0.12654,-0.0052 -0.15228,-0.03095 -0.0656,-0.06562 z m 59.22636,-0.749496 c 0.005,-0.126535 0.031,-0.152273 0.0656,-0.06562 0.0314,0.07841 0.0275,0.172093 -0.009,0.208187 -0.0361,0.03609 -0.0618,-0.02806 -0.0571,-0.142563 z"
         id="path27" />
      <path
         style="fill:#000000;fill-opacity:1;stroke-width:0.108619"
         d="m 54.050025,124.48382 c 0.648377,-0.0815 1.387567,-0.0897 1.341114,-0.0148 -0.02778,0.0448 -0.401991,0.0741 -0.831584,0.0652 -0.429593,-0.009 -0.658881,-0.0316 -0.50953,-0.0504 z m 92.137665,-0.0112 c 0.16511,-0.025 0.4095,-0.0243 0.54309,10e-4 0.1336,0.0258 -0.002,0.0462 -0.30019,0.0454 -0.2987,-8.6e-4 -0.40801,-0.0219 -0.2429,-0.0469 z m 8.30787,-0.10925 c 0.19416,-0.0241 0.51187,-0.0241 0.70603,0 0.19415,0.0241 0.0353,0.0438 -0.35302,0.0438 -0.38831,0 -0.54717,-0.0197 -0.35301,-0.0438 z M 15.541052,117.87045 c 1.5e-5,-3.40521 0.01378,-4.78255 0.03059,-3.06076 0.01681,1.7218 0.0168,4.50788 -2.9e-5,6.19129 -0.01683,1.68342 -0.03058,0.27468 -0.03056,-3.13053 z m 14.387306,5.29518 -0.263327,-0.2987 0.298703,0.26333 c 0.279183,0.24612 0.348514,0.33407 0.263326,0.33407 -0.01946,0 -0.153872,-0.13441 -0.298702,-0.2987 z m -0.983206,-0.86895 c -0.135108,-0.17228 -0.131267,-0.17612 0.04101,-0.041 0.180932,0.1419 0.238471,0.23109 0.149073,0.23109 -0.02256,0 -0.108092,-0.0855 -0.190083,-0.19008 z m -1.136966,-1.03188 -0.206918,-0.2444 0.244393,0.20692 c 0.229669,0.19445 0.293841,0.28187 0.206918,0.28187 -0.02061,0 -0.130588,-0.10998 -0.244393,-0.24439 z m 37.185216,-1.79216 c 1.807151,-0.0167 4.764306,-0.0167 6.571457,0 1.807151,0.0167 0.328573,0.0304 -3.285729,0.0304 -3.614301,0 -5.092879,-0.0137 -3.285728,-0.0304 z m 9.992959,0.009 c 0.07468,-0.0301 0.196872,-0.0301 0.271548,0 0.07468,0.0301 0.01358,0.0548 -0.135774,0.0548 -0.149351,0 -0.210449,-0.0247 -0.135774,-0.0548 z m 90.378939,-0.009 c 1.87121,-0.0167 4.90168,-0.0167 6.73439,3e-5 1.83271,0.0167 0.30173,0.0303 -3.40218,0.0303 -3.70391,-1e-5 -5.20341,-0.0137 -3.33221,-0.0303 z M 25.46934,119.14672 c -0.135108,-0.17227 -0.131267,-0.17611 0.04101,-0.041 0.104546,0.082 0.190083,0.16753 0.190083,0.19009 0,0.0894 -0.0892,0.0319 -0.231093,-0.14908 z m -1.086192,-0.97757 c -0.135108,-0.17227 -0.131266,-0.17612 0.04101,-0.041 0.104546,0.082 0.190083,0.16753 0.190083,0.19009 0,0.0894 -0.0892,0.0319 -0.231094,-0.14908 z m -1.19481,-1.08619 c -0.135108,-0.17228 -0.131266,-0.17612 0.04101,-0.041 0.180933,0.1419 0.238471,0.23109 0.149073,0.23109 -0.02255,0 -0.108092,-0.0855 -0.190083,-0.19008 z m 120.589652,0.0181 c 0.005,-0.12653 0.031,-0.15227 0.0656,-0.0656 0.0314,0.0784 0.0275,0.17209 -0.009,0.20819 -0.0361,0.0361 -0.0618,-0.0281 -0.0571,-0.14257 z m -10.76186,-1.06384 c 0,-0.0226 0.0855,-0.10809 0.19008,-0.19008 0.17228,-0.13511 0.17612,-0.13127 0.041,0.041 -0.1419,0.18093 -0.2311,0.23847 -0.2311,0.14907 z M 20.907336,115.0192 c -0.135108,-0.17228 -0.131266,-0.17612 0.04101,-0.041 0.104546,0.082 0.190083,0.16753 0.190083,0.19008 0,0.0894 -0.0892,0.0319 -0.231094,-0.14907 z m -1.028346,-0.92327 -0.206918,-0.24439 0.244393,0.20692 c 0.229669,0.19445 0.293841,0.28187 0.206918,0.28187 -0.02061,0 -0.130588,-0.10998 -0.244393,-0.2444 z m 13.628165,-0.38016 c -0.135108,-0.17228 -0.131266,-0.17612 0.04101,-0.041 0.180932,0.14189 0.238471,0.23109 0.149073,0.23109 -0.02255,0 -0.108092,-0.0855 -0.190083,-0.19008 z m 99.495115,-0.32586 c -0.1351,-0.17228 -0.13127,-0.17612 0.041,-0.041 0.18093,0.1419 0.23848,0.23109 0.14907,0.23109 -0.0225,0 -0.10808,-0.0855 -0.19008,-0.19008 z m -5.38382,-0.65142 c 0.70533,-0.019 1.82954,-0.0189 2.49824,1.1e-4 0.66872,0.019 0.0916,0.0345 -1.2824,0.0344 -1.37403,-7e-5 -1.92115,-0.0156 -1.21584,-0.0346 z m 16.15954,-0.63391 c 0.005,-0.12653 0.031,-0.15227 0.0656,-0.0656 0.0314,0.0784 0.0275,0.17209 -0.009,0.20819 -0.0361,0.0361 -0.0618,-0.0281 -0.0571,-0.14257 z m 22.44662,-0.27597 c 0.0737,-0.0742 0.16133,-0.10761 0.19478,-0.0742 0.0334,0.0334 -0.0268,0.0942 -0.13397,0.13496 -0.15481,0.0589 -0.16728,0.0465 -0.0608,-0.0608 z m -99.81916,-0.0585 c 0.07468,-0.0301 0.196873,-0.0301 0.271548,0 0.07468,0.0301 0.01358,0.0548 -0.135774,0.0548 -0.149351,0 -0.210449,-0.0247 -0.135774,-0.0548 z m 1.30343,-0.009 c 0.492859,-0.0201 1.299356,-0.0201 1.792216,0 0.492859,0.0201 0.08961,0.0366 -0.896108,0.0366 -0.985719,0 -1.388967,-0.0165 -0.896108,-0.0366 z m 2.824097,0.009 c 0.07468,-0.0301 0.196872,-0.0301 0.271548,0 0.07468,0.0301 0.01358,0.0548 -0.135774,0.0548 -0.149351,0 -0.210449,-0.0247 -0.135774,-0.0548 z m 96.838913,-0.009 c 0.46572,-0.0204 1.1989,-0.0203 1.62929,3.2e-4 0.43039,0.0206 0.0493,0.0373 -0.84676,0.0371 -0.89611,-1.1e-4 -1.24824,-0.017 -0.78253,-0.0374 z m 2.54759,0.009 c 0.0747,-0.0301 0.19687,-0.0301 0.27154,0 0.0747,0.0301 0.0136,0.0548 -0.13577,0.0548 -0.14935,0 -0.21045,-0.0247 -0.13577,-0.0548 z m 0.59947,-0.003 c 0.10568,-0.0275 0.25232,-0.0257 0.32585,0.004 0.0736,0.0298 -0.0129,0.0523 -0.19214,0.0501 -0.17923,-0.002 -0.23939,-0.0266 -0.13371,-0.0541 z M 15.507385,111.29899 c 0,-0.14935 0.02466,-0.21045 0.05479,-0.13577 0.03013,0.0747 0.03013,0.19687 0,0.27155 -0.03013,0.0747 -0.05479,0.0136 -0.05479,-0.13578 z m 0.946567,-0.2987 c -0.135108,-0.17228 -0.131266,-0.17612 0.04101,-0.041 0.104545,0.082 0.190083,0.16753 0.190083,0.19008 0,0.0894 -0.0892,0.0319 -0.231094,-0.14907 z m 91.841008,-0.48879 -0.20692,-0.24439 0.24439,0.20692 c 0.13442,0.1138 0.2444,0.22378 0.2444,0.24439 0,0.0869 -0.0874,0.0228 -0.28187,-0.20692 z m -80.748002,-2.40347 c 0,-0.0226 0.08554,-0.1081 0.190084,-0.19009 0.172276,-0.1351 0.176118,-0.13126 0.04101,0.041 -0.141897,0.18094 -0.231094,0.23847 -0.231094,0.14908 z m -11.07915,-1.95515 c 0,-0.0225 0.08554,-0.10809 0.190083,-0.19008 0.172277,-0.13511 0.176118,-0.13127 0.04101,0.041 -0.141896,0.18093 -0.231093,0.23847 -0.231093,0.14907 z m 89.836592,-0.45682 c 0.005,-0.12654 0.031,-0.15228 0.0656,-0.0656 0.0314,0.0784 0.0275,0.17209 -0.009,0.20819 -0.0361,0.0361 -0.0618,-0.0281 -0.0571,-0.14256 z m 14.25401,-0.34371 c 0.76516,-0.0187 1.98713,-0.0186 2.71547,1.1e-4 0.72835,0.0188 0.1023,0.0341 -1.39121,0.034 -1.49351,-7e-5 -2.08943,-0.0154 -1.32426,-0.0341 z M 17.662618,105.05339 c 0.140309,-0.14935 0.279546,-0.27155 0.309416,-0.27155 0.02987,0 -0.06049,0.1222 -0.200797,0.27155 -0.140309,0.14935 -0.279545,0.27155 -0.309415,0.27155 -0.02987,0 0.06049,-0.1222 0.200796,-0.27155 z m 1.086191,-0.96427 c 0,-0.0226 0.08554,-0.10809 0.190084,-0.19008 0.172276,-0.13511 0.176118,-0.13127 0.04101,0.041 -0.141897,0.18093 -0.231094,0.23847 -0.231094,0.14907 z m 87.470941,-0.50209 c 0,-0.32857 0.0204,-0.46299 0.0452,-0.2987 0.0249,0.16429 0.0249,0.43312 0,0.59741 -0.0249,0.16428 -0.0452,0.0299 -0.0452,-0.29871 z m 0.0932,-2.17238 c 0,-0.14935 0.0247,-0.21045 0.0548,-0.13577 0.0301,0.0747 0.0301,0.19687 0,0.27155 -0.0301,0.0747 -0.0548,0.0136 -0.0548,-0.13578 z m 89.08012,-0.43448 c 0,-0.26883 0.0212,-0.3788 0.0471,-0.24439 0.0259,0.13442 0.0259,0.35437 0,0.48879 -0.0259,0.13441 -0.0471,0.0244 -0.0471,-0.2444 z M 22.007383,101.1564 c 0,-0.0226 0.08554,-0.10809 0.190084,-0.19008 0.172276,-0.13511 0.176118,-0.13127 0.04101,0.041 -0.141897,0.18093 -0.231094,0.23847 -0.231094,0.14907 z m 1.19481,-1.08619 c 0,-0.0226 0.08554,-0.108091 0.190084,-0.190082 0.172276,-0.135108 0.176118,-0.131266 0.04101,0.04101 -0.141897,0.180932 -0.231094,0.238472 -0.231094,0.149072 z m 174.007837,0 c 0,-0.0226 0.0855,-0.108091 0.19009,-0.190082 0.17228,-0.135108 0.17611,-0.131266 0.041,0.04101 -0.1419,0.180932 -0.2311,0.238472 -0.2311,0.149072 z M 24.179766,99.201258 c 0,-0.02255 0.08554,-0.108092 0.190083,-0.190083 0.172277,-0.135108 0.176118,-0.131266 0.04101,0.04101 -0.141896,0.180932 -0.231093,0.238471 -0.231093,0.149073 z M 196.58494,98.451064 c -0.0132,-0.480831 -0.22057,-4.430301 -0.30925,-5.88937 l -0.0727,-1.195308 1.45393,-0.814146 c 0.79965,-0.44778 1.51448,-0.807445 1.58851,-0.799254 0.074,0.0082 0.11512,-0.01664 0.0913,-0.05517 -0.0389,-0.06288 1.0891,-0.715704 4.58411,-2.653103 0.6247,-0.346291 1.14695,-0.615123 1.16056,-0.597405 0.0206,0.02681 -0.76108,2.088555 -2.29777,6.060576 -0.15023,0.388314 -0.32932,0.811555 -0.39799,0.940536 -0.11424,0.214567 -1.85878,1.842848 -3.70549,3.458539 -0.40969,0.358443 -0.84698,0.755094 -0.97175,0.881448 -0.12477,0.126352 -0.42645,0.405731 -0.67038,0.620843 l -0.44354,0.391112 -0.01,-0.349296 z m 2.90609,-0.444616 c 0,-0.02256 0.0855,-0.108093 0.19009,-0.190084 0.17228,-0.135108 0.17611,-0.131266 0.041,0.04101 -0.1419,0.180932 -0.2311,0.238471 -0.2311,0.149073 z M 26.352148,97.232815 c 0.140309,-0.149352 0.279546,-0.271548 0.309416,-0.271548 0.02987,0 -0.06049,0.122196 -0.200797,0.271548 -0.140309,0.149351 -0.279545,0.271547 -0.309415,0.271547 -0.02987,0 0.06049,-0.122196 0.200796,-0.271547 z M 195.17147,96.961267 c 0,-0.209092 0.0223,-0.29463 0.0497,-0.190084 0.0273,0.104546 0.0273,0.275621 0,0.380167 -0.0273,0.104546 -0.0497,0.01901 -0.0497,-0.190083 z m -120.325349,-0.0072 c -0.03938,-0.06372 -0.0483,-0.139142 -0.01983,-0.167614 0.02847,-0.02847 0.08071,0.02366 0.116086,0.115846 0.07345,0.191399 0.01084,0.225065 -0.09626,0.05177 z m 125.839719,-0.03379 c 0,-0.02255 0.0855,-0.108092 0.19009,-0.190083 0.17228,-0.135108 0.17611,-0.131266 0.041,0.04101 -0.1419,0.180933 -0.2311,0.238471 -0.2311,0.149073 z M 41.232968,96.594399 c 0,-0.02255 0.08554,-0.108092 0.190084,-0.190083 0.172276,-0.135108 0.176118,-0.131267 0.04101,0.04101 -0.141897,0.180932 -0.231094,0.238471 -0.231094,0.149073 z m 67.343862,-0.882252 c 0.1403,-0.149352 0.27954,-0.271548 0.30941,-0.271548 0.0299,0 -0.0605,0.122196 -0.2008,0.271548 -0.1403,0.149351 -0.27954,0.271548 -0.30941,0.271548 -0.0299,0 0.0605,-0.122197 0.2008,-0.271548 z m 93.1952,0.230537 c 0,-0.02255 0.0855,-0.108092 0.19009,-0.190083 0.17228,-0.135108 0.17611,-0.131266 0.041,0.04101 -0.1419,0.180932 -0.2311,0.238471 -0.2311,0.149073 z m -61.10857,-0.637859 -0.20692,-0.244393 0.24439,0.206918 c 0.22967,0.194452 0.29384,0.281868 0.20692,0.281868 -0.0206,0 -0.13059,-0.109977 -0.24439,-0.244393 z m -26.35019,-1.567712 c 0.0784,-0.03138 0.1721,-0.02752 0.20819,0.0086 0.0361,0.03609 -0.0281,0.06176 -0.14256,0.05705 -0.12654,-0.0052 -0.15227,-0.03095 -0.0656,-0.06562 z m 5.92126,-0.0072 c 3.09613,-0.01602 8.13063,-0.01602 11.18777,9e-6 3.05713,0.01603 0.52393,0.02914 -5.62934,0.02914 -6.15328,-6e-6 -8.65457,-0.01312 -5.55843,-0.02914 z"
         id="path25" />
      <path
         style="fill:#000000;fill-opacity:1;stroke-width:0.108619"
         d="M 4.9541805,109.0723 V 93.594074 h 5.3223375 5.322337 v 6.690236 6.69023 l 1.004727,-0.89671 c 0.552599,-0.49319 1.469073,-1.32064 2.036608,-1.83877 0.567535,-0.51813 1.593986,-1.4469 2.281002,-2.06394 0.687016,-0.61704 1.687565,-1.51713 2.223443,-2.00021 0.535877,-0.483083 1.272766,-1.147164 1.637531,-1.475737 0.656767,-0.591603 2.618925,-2.365296 4.611318,-4.168403 l 1.031881,-0.933847 7.165845,-0.0014 c 7.064019,-0.0014 7.162801,0.0015 6.951624,0.206757 -0.117821,0.1145 -0.876733,0.762142 -1.686471,1.439204 -0.809739,0.677062 -3.128993,2.624062 -5.153898,4.326667 -2.024904,1.702599 -4.319548,3.629959 -5.099206,4.283019 -0.779658,0.65306 -1.738033,1.45955 -2.129722,1.79221 -0.814156,0.69147 -1.212078,1.02255 -2.459372,2.0463 -0.489793,0.40201 -0.893041,0.76542 -0.896108,0.80758 -0.0031,0.0421 0.470991,0.4555 1.053461,0.91856 0.58247,0.46305 1.107916,0.88163 1.167656,0.93017 0.05974,0.0485 0.916321,0.73496 1.90351,1.52537 0.98719,0.79041 2.013641,1.61745 2.281002,1.83787 0.267361,0.22041 1.148594,0.92915 1.958296,1.57497 0.809701,0.64582 3.172609,2.53424 5.250905,4.19647 2.078296,1.66224 3.79167,3.0064 3.807496,2.98703 0.03319,-0.0406 2.900308,-5.24491 5.165643,-9.37647 2.112092,-3.85207 2.071847,-3.7789 2.718083,-4.94217 0.315284,-0.56754 0.718837,-1.30071 0.896783,-1.62929 0.177946,-0.32857 0.408475,-0.74404 0.512287,-0.92326 0.10381,-0.17922 0.399248,-0.71689 0.656525,-1.19481 0.257278,-0.47792 1.101575,-2.0176 1.876216,-3.4215 0.774642,-1.403903 1.581634,-2.870261 1.793316,-3.258574 0.211683,-0.388314 0.546889,-0.999296 0.744905,-1.357739 0.198015,-0.358443 0.616545,-1.128022 0.930065,-1.710174 l 0.570038,-1.058459 6.359729,-5.43e-4 6.35973,-5.43e-4 0.235233,0.461632 c 0.454256,0.891453 1.629636,3.08413 2.489118,4.643467 0.477457,0.866238 1.077874,1.966003 1.334261,2.443923 0.256387,0.47793 0.551092,1.01559 0.6549,1.19482 0.103807,0.17922 0.434048,0.7902 0.733869,1.35773 0.299821,0.56754 0.958232,1.7895 1.463137,2.71548 0.504905,0.92598 1.153174,2.12351 1.440596,2.66117 0.287424,0.53767 0.556948,1.02645 0.598942,1.08619 0.042,0.0597 0.297753,0.52409 0.568354,1.03188 0.639118,1.19934 3.25391,6.0438 4.015953,7.44042 0.325967,0.5974 0.791603,1.45278 1.034747,1.90083 0.243144,0.44805 0.833305,1.5356 1.311469,2.41678 l 0.869388,1.60213 h -5.938178 -5.938179 l -0.324242,-0.62769 c -1.701051,-3.29297 -2.395805,-4.48536 -2.604318,-4.46972 -0.11999,0.009 -3.158235,0.0109 -6.751653,0.004 l -6.533488,-0.0121 2.125323,-3.77452 c 1.168928,-2.07598 2.136936,-3.79018 2.151129,-3.80933 0.01419,-0.0192 1.141077,-0.0352 2.504186,-0.0356 1.363109,-4.3e-4 2.517254,-0.0248 2.564766,-0.0542 0.04751,-0.0294 -0.09337,-0.37994 -0.313068,-0.77906 -0.897117,-1.62976 -2.759091,-5.04205 -3.403921,-6.23809 -0.378446,-0.70195 -0.72586,-1.27628 -0.77203,-1.27628 -0.08027,0 -0.383215,0.54351 -1.786018,3.20427 -0.346459,0.65714 -0.721692,1.35898 -0.833852,1.55962 -0.112159,0.20065 -0.647307,1.20266 -1.189219,2.2267 -0.541911,1.02403 -1.150456,2.16529 -1.352323,2.53612 -0.201868,0.37084 -0.763582,1.42173 -1.248253,2.33532 -0.916171,1.72694 -2.367412,4.44471 -2.975002,5.57135 -0.193306,0.35844 -0.611478,1.1405 -0.929273,1.7379 -0.317793,0.59741 -0.658377,1.23283 -0.756853,1.41205 -0.171023,0.31125 -0.220038,0.32903 -1.093507,0.39654 -0.502952,0.0389 -5.882086,0.0755 -11.953632,0.0815 l -11.039174,0.0108 -0.915374,-0.8418 c -0.503456,-0.46299 -1.589433,-1.44893 -2.413283,-2.19098 -0.82385,-0.74205 -1.554129,-1.40192 -1.622843,-1.46636 -0.06871,-0.0644 -1.102505,-0.99634 -2.297316,-2.07088 -1.19481,-1.07453 -2.734486,-2.46469 -3.421502,-3.08924 -0.687016,-0.62455 -1.711935,-1.5539 -2.277599,-2.06521 -0.934868,-0.84505 -1.364376,-1.23399 -2.498145,-2.26222 -0.252678,-0.22916 -0.40204,-0.30056 -0.453741,-0.21691 -0.04239,0.0686 -0.0684,3.29245 -0.05781,7.16414 l 0.01927,7.03943 -5.295182,1e-5 -5.2951825,2e-5 z m 86.7866805,0 V 93.594074 h 5.322337 5.322342 v 15.478226 15.47823 h -5.322342 -5.322337 z m 51.919939,15.40249 c 0,-0.0378 0.2034,-0.43942 0.45199,-0.89257 0.7637,-1.39211 0.89819,-1.63687 1.88526,-3.43077 0.52593,-0.95585 1.45515,-2.64216 2.06491,-3.74736 0.60978,-1.1052 1.25548,-2.27828 1.43489,-2.60686 1.49153,-2.73151 4.10155,-7.4828 4.83309,-8.79815 0.25878,-0.4653 4.84353,-8.819742 5.78197,-10.536053 l 0.44543,-0.814644 6.35568,-0.02801 6.35568,-0.02801 0.23499,0.462491 c 0.2238,0.440457 0.69543,1.311004 1.48635,2.743492 0.19791,0.358443 0.53163,0.969426 0.74161,1.357739 0.20999,0.388314 0.79632,1.463643 1.30298,2.389625 0.50665,0.92598 1.15305,2.1235 1.43646,2.66117 0.2834,0.53766 0.60087,1.1242 0.70549,1.30343 0.10463,0.17922 0.44806,0.81464 0.76319,1.41205 0.31514,0.5974 0.60761,1.13507 0.64994,1.19481 0.0423,0.0597 0.3123,0.54852 0.59993,1.08619 0.28765,0.53766 0.75926,1.41259 1.04803,1.94429 0.28876,0.53169 0.52502,0.98479 0.52502,1.00688 0,0.0221 0.11353,0.22249 0.25229,0.44533 0.13876,0.22284 0.4987,0.86951 0.79987,1.43705 0.30117,0.56753 1.61189,2.98702 2.91272,5.37665 1.30083,2.38962 2.58183,4.74801 2.84667,5.24087 l 0.48152,0.89611 h -5.91809 -5.91811 l -0.80768,-1.49352 c -0.44423,-0.82143 -1.04303,-1.93342 -1.33069,-2.47108 -0.28766,-0.53767 -0.57608,-1.0139 -0.64096,-1.05831 -0.0649,-0.0444 -3.12668,-0.0688 -6.80402,-0.0543 l -6.68608,0.0264 1.18729,-2.11808 c 2.34519,-4.18378 3.12891,-5.53959 3.20289,-5.54095 0.0414,-7.6e-4 1.18719,-0.007 2.54628,-0.0148 2.45024,-0.0134 2.66929,-0.0474 2.37761,-0.36937 -0.0514,-0.0568 -0.32821,-0.5431 -0.6151,-1.08076 -0.28688,-0.53767 -0.87256,-1.61299 -1.30148,-2.38962 -0.42893,-0.77663 -1.06313,-1.94971 -1.40935,-2.60686 -0.77049,-1.46244 -1.02986,-1.90091 -1.1243,-1.90058 -0.0399,1.1e-4 -0.21851,0.27948 -0.39684,0.62074 -0.33437,0.63988 -2.78431,5.23859 -3.66194,6.87372 -0.27256,0.5078 -1.11873,2.09635 -1.88037,3.53013 -0.76166,1.43377 -1.5425,2.90013 -1.73522,3.25857 -0.19271,0.35844 -0.57174,1.06718 -0.84228,1.57498 -0.27055,0.50779 -0.67584,1.26541 -0.90066,1.68359 -0.22482,0.41819 -0.6772,1.27356 -1.00528,1.90084 -0.3281,0.62727 -0.65417,1.20321 -0.72462,1.27986 -0.0928,0.10099 -0.72416,0.15309 -2.29301,0.18923 -4.57977,0.1055 -9.71395,0.15014 -9.71395,0.0845 z m 48.27703,-0.06 c -0.0284,-0.0747 -0.0391,-7.02766 -0.0237,-15.45107 l 0.0279,-15.315297 1.53748,-0.03007 1.53746,-0.03007 0.059,1.007646 c 0.18387,3.140586 0.28991,5.33322 0.29037,6.004131 0,0.41818 0.0379,0.81918 0.0836,0.8911 0.0557,0.0876 0.99679,-0.69588 2.84959,-2.372198 1.52155,-1.37663 3.0964,-2.79689 3.49965,-3.156135 l 0.73318,-0.653172 v 14.620465 14.62046 h -5.27144 c -4.11719,0 -5.28274,-0.0297 -5.3231,-0.13578 z m -79.76481,-0.19894 c -0.67145,-0.13187 -1.77715,-0.6707 -2.37045,-1.15517 -1.10446,-0.90188 -1.96141,-2.86028 -2.36616,-5.40743 -0.038,-0.23896 -0.0941,-0.56889 -0.12465,-0.73318 l -0.0556,-0.2987 h 11.96244 c 12.7925,0 12.88425,-0.004 13.75606,-0.53374 0.6863,-0.41737 0.9153,-1.60255 0.44468,-2.30145 -0.28371,-0.42132 -1.0384,-0.81916 -1.84362,-0.97186 -0.31633,-0.06 -4.28974,-0.10324 -9.48528,-0.10324 -5.94829,0 -9.13356,-0.0391 -9.5165,-0.11679 -0.77296,-0.15684 -1.93518,-0.58906 -2.83389,-1.05392 -1.46794,-0.7593 -2.57755,-2.32903 -3.12983,-4.42766 -0.23517,-0.89365 -0.25594,-1.18589 -0.25447,-3.57995 0.001,-2.07262 0.0403,-2.78054 0.19022,-3.45436 0.45254,-2.033556 1.01835,-3.193935 2.08188,-4.269624 0.8558,-0.865582 1.63995,-1.315626 2.95783,-1.697589 l 0.84714,-0.245526 h 12.81706 12.81706 l 0.8735,0.35219 c 1.41595,0.570903 2.36859,1.542937 2.97675,3.037368 0.3427,0.842082 0.81523,2.701423 0.92542,3.641261 l 0.0729,0.6223 -12.25433,0.0294 c -11.60873,0.0279 -12.28295,0.04 -12.79744,0.23015 -0.69226,0.25586 -1.11368,0.65402 -1.25748,1.18808 -0.27712,1.02914 0.27047,1.83035 1.55848,2.28031 0.24453,0.0854 3.24482,0.14151 9.9092,0.18522 10.74885,0.0705 10.09667,0.0201 11.91818,0.92059 1.63911,0.8103 2.53345,1.78142 3.22349,3.50024 1.00037,2.49185 1.02138,6.79085 0.0474,9.7013 -0.87026,2.60053 -2.54385,4.06412 -5.273,4.61136 -0.72777,0.14593 -2.4389,0.16632 -13.08861,0.15598 -6.73826,-0.007 -12.46605,-0.0541 -12.72841,-0.10558 z"
         id="path23" />
    </g>
  </g>
</svg>
