<?xml version="1.0" encoding="UTF-8" standalone="no"?>
<!-- Created with Inkscape (http://www.inkscape.org/) -->

<svg
   width="209.67346mm"
   height="223.28862mm"
   viewBox="0 0 209.67346 223.28862"
   version="1.1"
   id="svg847"
   inkscape:version="1.1.1 (3bf5ae0d25, 2021-09-20)"
   sodipodi:docname="icon.svg"
   xmlns:inkscape="http://www.inkscape.org/namespaces/inkscape"
   xmlns:sodipodi="http://sodipodi.sourceforge.net/DTD/sodipodi-0.dtd"
   xmlns="http://www.w3.org/2000/svg"
   xmlns:svg="http://www.w3.org/2000/svg">
  <sodipodi:namedview
     id="namedview849"
     pagecolor="#505050"
     bordercolor="#ffffff"
     borderopacity="1"
     inkscape:pageshadow="0"
     inkscape:pageopacity="0"
     inkscape:pagecheckerboard="1"
     inkscape:document-units="mm"
     showgrid="false"
     inkscape:zoom="0.51445126"
     inkscape:cx="807.23378"
     inkscape:cy="476.78965"
     inkscape:window-width="1440"
     inkscape:window-height="890"
     inkscape:window-x="-6"
     inkscape:window-y="-6"
     inkscape:window-maximized="1"
     inkscape:current-layer="layer1"
     inkscape:rotation="-1" />
  <defs
     id="defs844" />
  <g
     inkscape:label="Laag 1"
     inkscape:groupmode="layer"
     id="layer1"
     transform="translate(-0.34211347,-20.395824)">
    <path
       style="fill:#000000;stroke-width:0.453839"
       d="m 93.22252,225.02776 c 4.957526,-1.93068 7.74363,-3.37241 8.05564,-3.37913 1.00314,-1.94616 1.10957,-5.04709 -0.28224,-5.59519 -0.57188,-0.21743 -1.308877,-0.71956 -1.637757,-1.11584 -0.51206,-0.617 -0.44417,-0.77827 0.47249,-1.12244 0.588747,-0.22106 11.895147,-4.44293 25.152997,-9.30676 l 31.1661,-11.43372 c 4.65995,2.02429 6.37415,2.43785 9.85568,3.87499 4.97367,-0.55061 6.7643,-1.64791 12.27069,-4.0257 l 0.38659,-2.52632 c 0,0 -0.52881,-4.33361 -1.58955,-4.33361 -1.90139,0 0.64393,-1.02037 11.18044,-4.99223 l 14.22354,-5.36173 c 0.83556,-42.7056 0.66052,-88.846344 1.71887,-123.100791 -0.56944,-0.795495 -2.56043,-3.584517 -4.69932,-6.292823 C 183.98254,42.10199 169.74864,39.552284 153.86157,36.434861 94.527626,44.477574 76.151752,46.08587 10.144972,58.467047 9.4458249,106.22191 10.056642,153.68049 9.886288,196.62415 c 18.473565,14.19657 30.284621,22.49282 46.285473,33.1089 5.927297,-1.97988 14.556176,-5.25572 18.629891,-6.71962 5.652652,3.89931 7.079409,4.63476 9.654989,5.76774 4.601502,-1.53133 5.967343,-2.15363 8.765879,-3.75341 z m -7.298077,-1.49042 6.80758,-2.60813 c 3.74416,-1.43446 6.96075,-2.61588 7.14795,-2.62537 0.611937,-0.031 0.204637,1.42866 -0.417163,1.82764 -1.10955,0.71195 -12.83097,5.95975 -13.40412,6.00116 -0.97948,-3.1067 -0.244609,1.36051 -0.134247,-2.5953 z m -8.028288,-1.60782 c 3.619608,-1.6236 0.224434,-0.0495 4.220348,-1.53034 l 0.99985,1.09944 c 1.231693,2.66889 1.302182,1.12415 0.334177,4.22232 -3.200043,-2.09888 -0.08163,1.07125 -5.554375,-3.79142 z m -20.864759,3.8393 C 57.512589,177.27168 57.3543,136.06967 58.594181,85.431407 70.717383,82.790899 197.41902,54.952281 197.79566,55.151437 196.82071,98.700718 196.66784,137.35801 196.21093,174.46509 M 50.673152,221.19552 c 0.03468,-49.71645 0.451402,-101.54971 0.740585,-144.083772 1.210232,2.112197 2.224047,3.025534 3.649674,5.250161 -1.130339,45.743391 -0.996541,92.881621 -1.436497,141.105051 -1.18436,-1.00228 -1.809128,-1.31571 -2.953762,-2.27144 z m -6.159919,-4.46973 C 44.728939,193.22255 44.801505,93.620674 44.856898,77.606933 33.286553,72.407137 30.494408,71.306224 17.906228,66.937644 c -0.29413,43.759366 0.435409,79.569206 -0.992627,130.265126 -0.0978,0.10995 -2.610178,-1.37192 -3.682994,-2.50316 0.582314,-48.14296 -0.11724,-84.71468 0.0025,-131.978518 5.512418,1.326218 19.768947,6.669296 35.237659,12.36808 -0.376358,55.173418 -0.935255,114.506838 -0.379202,144.279148 -0.775063,-0.51073 -3.18529,-2.30996 -3.578319,-2.64253 z m 40.10618,3.89241 c -0.73626,-0.81356 -0.52499,-0.93527 5.63437,-3.246 l 6.39931,-2.40075 0.92446,0.92446 0.92446,0.92446 -4.92728,1.87667 c -2.70999,1.03216 -5.33572,2.06303 -5.83494,2.29082 -1.42144,0.64858 -2.29224,0.54542 -3.12038,-0.36966 z M 20.105456,199.2746 c 0.592881,-43.28319 0.899278,-92.01824 0.151346,-128.819244 8.36602,3.993366 12.346078,4.749125 21.441813,9.101754 -0.0012,36.84507 -0.257189,97.18695 -0.194971,135.15524 -11.606108,-8.64096 -13.584956,-9.5418 -21.398188,-15.43775 z m 15.369497,-96.38824 c 0.90232,-0.62943 1.02113,-1.1019 1.02113,-4.060743 0,-2.38882 -0.16374,-3.34844 -0.57134,-3.34844 -0.31423,0 -2.26098,-1.13123 -4.32611,-2.51384 -2.06513,-1.38262 -3.93781,-2.40072 -4.16152,-2.26246 -0.22371,0.13826 -0.4724,-0.20907 -0.55265,-0.77185 -0.0803,-0.56278 -0.50331,-1.09135 -0.94013,-1.17461 -0.70592,-0.13454 -0.79421,0.27703 -0.79421,3.70242 0,2.11958 0.12565,4.18124 0.27923,4.58146 0.2098,0.54673 8.5983,6.712493 8.95777,6.584183 0.0367,-0.0131 0.5262,-0.34435 1.08783,-0.73612 z m -4.87357,-3.915643 c -1.86922,-1.30321 -3.47136,-2.74737 -3.56031,-3.20922 -0.12002,-0.62322 0.84406,-0.15377 3.73893,1.82062 2.14537,1.4632 3.90067,2.915653 3.90069,3.227673 6e-5,0.89224 -0.45784,0.68581 -4.07931,-1.839073 z m 0.0878,-3.56178 c -4.16298,-2.78279 -3.93061,-2.59913 -3.64707,-2.88267 0.28403,-0.28403 7.6343,4.4126 7.63682,4.87973 0.003,0.59996 -0.42633,0.38494 -3.98975,-1.99706 z M 173.00203,190.39118 c 4.34663,-1.60381 4.29916,-3.33197 4.29916,-0.3936 0,1.88468 -0.58021,1.38052 -1.1808,1.75043 -0.9969,0.61399 -7.7656,3.27021 -8.22546,3.31818 0.31167,-3.40738 2.79101,-3.82339 5.1071,-4.67501 z m -12.96769,1.79194 c 2.23739,-1.73227 2.12335,-1.86882 4.37649,-1.07507 l 1.61613,0.5844 c -0.29127,1.63712 0.7151,1.67838 -0.12237,2.9554 -2.97799,-0.40598 -0.57281,0.0551 -5.87025,-2.46473 z m 5.78475,-2.45755 c -0.10655,-0.1724 1.48622,-0.89578 3.53948,-1.60752 2.73111,-0.94671 4.09461,-1.20141 5.07957,-0.94887 1.24913,0.32029 1.0523,0.45173 -2.72592,1.82029 -3.7357,1.35315 -5.38449,1.5591 -5.89313,0.7361 z M 200.11686,54.708007 c 0.47695,-0.139728 0.95383,-0.247438 1.44821,-0.35075 -1.08313,41.369293 -0.70599,93.735273 -1.23731,118.790373 l -2.01489,0.75271 c 0.51048,-41.33587 0.83254,-88.921667 1.80399,-119.192333 z M 53.878093,75.338362 c 28.55376,-5.500075 50.415137,-9.696269 73.548227,-14.10425 l 69.01881,-13.015743 c 0.47629,0.598799 1.81888,2.011463 3.15335,3.925148 C 172.33725,57.169779 59.217007,81.293494 58.431997,81.334614 56.897062,79.044806 55.571685,77.572594 53.878093,75.338362 Z M 18.112961,61.055305 C 65.983177,52.331462 101.69162,48.120325 153.49291,39.89382 c 17.46244,4.12437 18.93617,3.455831 34.76725,6.840318 C 162.62412,51.180063 54.030251,73.110322 52.128881,73.165892 40.087592,68.661739 33.145653,66.111558 18.112961,61.055305 Z"
       id="path863"
       sodipodi:nodetypes="cccssscccssscccccccccccsssccccccccccccccccccccccccccccssssccscccssscssssssssssssssssscsscccccccsscsscccccccccccccccc" />
    <path
       d="m 101.2983,181.39896 c -1.773237,0.0835 -5.686813,-1.56719 -5.686813,-1.56719 -0.207173,-0.0331 11.865633,-2.74789 14.158213,-3.19918 -1.91995,2.19529 -2.88973,2.80071 -4.60835,3.84615 -2.71051,1.19291 -0.6178,0.39804 -3.86305,0.92022 z m -10.089651,-4.11478 c 0,-0.37851 -4.058359,-3.40152 -3.871149,-3.49852 11.329495,-3.02792 16.51589,-3.31887 28.4777,-6.04576 0,0.40613 -2.11239,2.88692 -4.2997,4.48229 -8.28025,1.59911 -10.22433,2.26278 -20.306851,5.06199 z m -7.266136,-6.24265 c 0,-0.3785 -2.148354,-2.20091 -1.961134,-2.29813 14.772265,-4.694 27.066261,-6.48152 39.191621,-9.9294 0,0.4052 -1.14699,1.89531 -2.47396,3.59895 -9.74082,2.89696 -20.814054,4.20631 -34.756527,8.62858 z m -4.324774,-5.61726 c -0.003,-0.37712 -1.574177,-3.22908 -1.386987,-3.32937 16.941583,-5.35598 29.730538,-6.73706 45.923038,-11.7076 0.003,0.46416 -0.5931,2.51042 -1.28388,2.80166 -15.61904,5.62047 -27.145743,6.15943 -43.252171,12.23531 z m -2.757919,-7.21996 c -0.363609,0.0966 -1.017979,-2.57559 -0.705989,-2.72602 12.958268,-3.73392 33.438949,-7.28517 49.108579,-12.17509 0.007,0.46235 -0.216,2.57159 -0.90691,2.86601 -14.56341,4.87278 -35.348915,8.80917 -47.49568,12.0351 z m -1.134663,-6.15216 c -0.364586,0.0964 -0.482677,-3.06976 -0.295477,-3.1699 17.325397,-4.63365 36.26217,-8.35396 51.55884,-13.59974 0.003,0.46412 0.16913,2.88447 -0.53396,3.14483 -15.28712,5.661 -32.47943,8.79799 -50.729403,13.62481 z m -0.764061,-7.54793 c -0.357425,0.12025 -0.02213,-3.82085 0.16509,-3.92003 13.546506,-3.87319 38.961284,-8.30097 52.153384,-12.13294 0.003,0.46332 0.44833,2.28861 -0.26537,2.5157 -13.07146,4.15923 -38.006795,8.8115 -52.053104,13.53727 z m 0.397454,-8.26366 c -0.358032,0.11554 0.663797,-3.8771 0.975817,-4.02755 9.413599,-2.76718 34.274043,-6.56379 47.801993,-11.04469 0.007,0.46237 1.38767,2.0673 0.69677,2.36172 -13.16691,4.98037 -44.3935,11.07079 -49.47458,12.71052 z m 66.71266,-62.830407 c -0.25468,9.333462 -2.32884,100.016787 -2.56598,114.995897 -0.007,0.46317 -2.71694,-3.81648 -3.4863,-3.48278 0.26555,-13.33071 2.26628,-91.882305 2.44698,-106.229021 z M 77.313344,127.02891 c -0.383071,0.10913 1.251056,-3.40393 1.712326,-3.61033 13.110563,-3.82119 26.02014,-5.58354 39.34968,-10.20575 0.43473,-0.15075 3.57802,3.33181 2.80965,3.66224 -14.63784,5.04456 -28.212438,5.69299 -43.871656,10.15384 z M 186.21491,77.212778 c -1.97217,0.625652 -26.67546,7.782624 -27.33015,6.261753 -0.81661,-1.897024 0.0976,-8.016322 1.47187,-10.62361 1.93635,-3.673659 18.88885,-4.651462 21.61581,-5.237648 9.38261,-2.744183 10.00904,1.276603 9.77125,3.640384 -0.41305,4.10621 -1.61464,4.717393 -5.52878,5.959121 z M 81.874653,117.47666 c 0,-0.39903 1.785918,-2.96031 2.729792,-4.02587 5.417095,-3.36061 18.338315,-5.12589 26.003495,-6.79825 1.59629,0.9593 3.56706,1.99194 4.21537,2.71073 -4.07564,1.27954 -23.007587,5.38096 -32.948657,8.11339 z m 6.463728,-10.14558 c 3.953841,-5.23683 16.321509,-5.11738 16.817519,-3.78109 -4.31369,1.41529 -12.564824,2.9797 -16.817519,3.78109 z M 67.015418,96.052566 c -0.25468,9.333464 -2.333442,100.280444 -2.570582,115.259554 -0.007,0.46317 -2.455585,5.18538 -3.224945,5.51908 0.26555,-13.33071 2.170183,-110.35155 2.350883,-124.698267 z M 138.46591,78.694249 c -11.04769,1.152929 -59.773332,10.186174 -71.450492,17.358317 0,0 -2.675284,-4.253333 -3.444644,-3.919633 15.389977,-3.5158 52.422176,-15.296899 78.500436,-18.72278 z m 1.03932,109.711801 c -24.94837,9.53015 -54.300746,19.51002 -78.285339,28.42515 0,0 3.994305,-5.85278 3.224945,-5.51908 24.889869,-9.55306 48.049694,-17.26211 71.574094,-26.38885 z"
       style="fill:#000000;stroke-width:0.111775"
       id="path9677"
       sodipodi:nodetypes="cccccccccccccccccccccccscssscscssccccscccscccscscscsccccccccccccccccccccccccccc" />
    <path
       d="m 183.50381,132.31912 c 0.90232,-0.62943 0.98237,-4.12028 0.98237,-7.07912 0,-2.38882 -0.16374,-3.34844 -0.57134,-3.34844 -0.31423,0 -8.00347,1.17134 -10.02806,2.34361 -2.7817,0.4874 -6.85227,2.29795 -8.96495,2.90114 -0.70592,-0.13454 -0.79421,0.27703 -0.79421,3.70242 0,2.11958 0.16282,7.29104 0.3164,7.69126 3.72313,-1.01812 15.99214,-4.07309 19.05979,-6.21087 z m -9.52868,1.30693 c -2.10323,0.8768 -7.75676,3.39176 -7.9075,2.94624 -1.94001,-5.73356 4.41052,-5.40525 7.75715,-6.44383 8.12735,-2.52219 8.95017,-3.94605 8.88477,0.11409 -0.0144,0.89212 -6.75727,2.55927 -8.73442,3.3835 z m -0.24117,-5.67077 c -4.68021,1.78045 -7.7263,3.03304 -7.59209,0.82654 0.0244,-0.40094 16.52464,-5.42857 16.52716,-4.96144 -0.12193,2.51813 -6.42018,3.17819 -8.93507,4.1349 z"
       style="fill:#000000;stroke-width:0.120078"
       id="path4029"
       sodipodi:nodetypes="cssccsccssssssscs" />
  </g>
</svg>
